<svg width="64" height="72" viewBox="0 0 64 72" fill="none" xmlns="http://www.w3.org/2000/svg">
<path fill-rule="evenodd" clip-rule="evenodd" d="M32 55C49.6731 55 64 42.6878 64 27.5C64 12.3122 49.6731 0 32 0C14.3269 0 0 12.3122 0 27.5C0 42.6878 14.3269 55 32 55ZM32 46C49.1208 46 63 37.7173 63 27.5C63 17.2827 49.1208 9 32 9C14.8792 9 1 17.2827 1 27.5C1 37.7173 14.8792 46 32 46Z" fill="#CFA82F"/>
<path fill-rule="evenodd" clip-rule="evenodd" d="M32 72C49.6731 72 64 59.6878 64 44.5C64 29.3122 49.6731 17 32 17C14.3269 17 0 29.3122 0 44.5C0 59.6878 14.3269 72 32 72ZM32 63C49.1208 63 63 54.7173 63 44.5C63 34.2827 49.1208 26 32 26C14.8792 26 1 34.2827 1 44.5C1 54.7173 14.8792 63 32 63Z" fill="#CFA82F"/>
</svg>
